<svg width="270" height="270" viewBox="0 0 270 270" fill="none" xmlns="http://www.w3.org/2000/svg">
<rect width="270" height="270" rx="135" fill="white"/>
<path fill-rule="evenodd" clip-rule="evenodd" d="M124.774 69C137.241 69 148.105 75.8617 153.795 86.0143C178.372 89.1025 197.383 110.077 197.383 135.491C197.383 163.033 175.056 185.359 147.515 185.359C142.386 185.359 137.438 184.585 132.781 183.147C123.976 190.963 112.386 195.71 99.6863 195.71C78.1206 195.71 59.7522 182.021 52.7965 162.858C37.5911 156.038 27 140.768 27 123.024C27 98.9253 46.536 79.3893 70.6348 79.3893C79.7594 79.3893 88.2299 82.1901 95.2335 86.9788C100.764 76.2986 111.917 69 124.774 69ZM222.548 180.146C222.548 187.095 216.915 192.728 209.966 192.728C203.017 192.728 197.383 187.095 197.383 180.146C197.383 173.197 203.017 167.563 209.966 167.563C216.915 167.563 222.548 173.197 222.548 180.146ZM234.612 201.117C239.244 201.117 243 197.361 243 192.728C243 188.095 239.244 184.34 234.612 184.34C229.979 184.34 226.223 188.095 226.223 192.728C226.223 197.361 229.979 201.117 234.612 201.117Z" fill="#7BA2C8"/>
<path fill-rule="evenodd" clip-rule="evenodd" d="M87.8158 135.058C87.8158 140.27 83.5907 144.495 78.3789 144.495C73.167 144.495 68.942 140.27 68.942 135.058C68.942 129.846 73.167 125.621 78.3789 125.621C83.5907 125.621 87.8158 129.846 87.8158 135.058ZM123.466 135.058C123.466 140.27 119.241 144.495 114.029 144.495C108.817 144.495 104.592 140.27 104.592 135.058C104.592 129.846 108.817 125.621 114.029 125.621C119.241 125.621 123.466 129.846 123.466 135.058ZM149.68 144.495C154.892 144.495 159.117 140.27 159.117 135.058C159.117 129.846 154.892 125.621 149.68 125.621C144.468 125.621 140.243 129.846 140.243 135.058C140.243 140.27 144.468 144.495 149.68 144.495Z" fill="white"/>
</svg>
