<svg width="340" height="72" viewBox="0 0 340 72" fill="none" xmlns="http://www.w3.org/2000/svg">
<path fill-rule="evenodd" clip-rule="evenodd" d="M253.327 56.0948C254.008 54.5346 254.008 52.2315 253.705 50.8942C253.44 49.5569 252.721 48.4796 251.851 47.6624C251.094 46.9194 249.958 46.5108 249.239 46.3622C248.293 46.1393 247.158 46.065 246.136 46.0279C245.114 45.9907 243.487 45.9907 242.654 46.0279C241.632 46.0279 240.875 46.3622 240.686 47.1794C240.61 47.4023 240.572 47.7366 240.572 47.9595C240.572 48.4192 240.582 48.9152 240.591 49.4161V49.4179C240.601 49.9285 240.61 50.4441 240.61 50.9313C240.678 52.728 240.705 54.5511 240.732 56.3612C240.751 57.5821 240.769 58.7984 240.799 59.9953C240.799 60.1439 240.837 63.6729 240.875 63.7844C240.989 64.6387 241.367 65.9018 243.032 65.8646C244.546 65.8275 245.001 64.6387 245.152 64.0072C245.243 63.6045 245.266 62.73 245.286 61.952C245.299 61.4385 245.311 60.967 245.341 60.7011C245.341 60.1439 245.493 59.9953 246.022 59.921L246.211 59.907C246.749 59.867 247.634 59.8011 248.104 59.7353C250.602 59.4752 252.343 58.2494 253.327 56.0948ZM248.596 50.4113C249.58 51.7486 249.883 54.4232 249.05 55.6862C248.293 56.8749 246.514 56.9492 245.72 56.9121C245.265 56.8749 245.19 56.652 245.19 56.2063C245.19 56.1736 245.189 56.0337 245.188 55.8155C245.18 54.5467 245.157 50.6301 245.19 49.7426C245.228 49.3711 245.379 49.1854 245.757 49.1482C246.287 49.074 247.574 49.074 248.596 50.4113Z" fill="#EA580C"/>
<path fill-rule="evenodd" clip-rule="evenodd" d="M323.227 50.8942C323.53 52.2315 323.53 54.5346 322.849 56.0948C321.865 58.2494 320.124 59.4752 317.626 59.7353C317.156 59.8011 316.27 59.867 315.733 59.907L315.544 59.921C315.014 59.9953 314.863 60.1439 314.863 60.7011C314.833 60.967 314.821 61.4384 314.808 61.952C314.788 62.7299 314.765 63.6045 314.674 64.0072C314.522 64.6387 314.068 65.8275 312.554 65.8646C310.889 65.9018 310.511 64.6387 310.397 63.7844C310.359 63.6729 310.321 60.1439 310.321 59.9953C310.291 58.8028 310.273 57.5923 310.255 56.3759L310.254 56.3613V56.3597C310.227 54.5505 310.2 52.7271 310.132 50.9313C310.132 50.4445 310.123 49.9293 310.113 49.4191V49.4175C310.104 48.9164 310.094 48.4193 310.094 47.9595C310.094 47.7366 310.132 47.4023 310.208 47.1794C310.397 46.3622 311.154 46.0279 312.176 46.0279C313.009 45.9907 314.636 45.9907 315.658 46.0279C316.68 46.065 317.815 46.1393 318.761 46.3622C319.48 46.5108 320.616 46.9194 321.373 47.6624C322.243 48.4796 322.962 49.5569 323.227 50.8942ZM318.572 55.6862C319.405 54.4232 319.102 51.7486 318.118 50.4113C317.096 49.074 315.809 49.074 315.279 49.1482C314.901 49.1854 314.75 49.3711 314.712 49.7426C314.679 50.6296 314.702 54.5418 314.71 55.8131V55.8148L314.711 56.1458L314.712 56.2063C314.712 56.652 314.787 56.8749 315.242 56.9121C316.036 56.9492 317.815 56.8749 318.572 55.6862Z" fill="#EA580C"/>
<path fill-rule="evenodd" clip-rule="evenodd" d="M306.673 63.71C306.749 64.5644 306.295 65.4931 305.348 65.7531C304.364 66.0132 303.04 65.7903 302.434 64.4158C302.309 64.1697 302.229 63.7989 302.126 63.3161C302.043 62.9246 301.943 62.4591 301.791 61.927C301.753 61.7041 301.677 61.4812 301.299 61.4812C300.59 61.4982 299.43 61.5074 298.355 61.5159C297.076 61.5261 295.917 61.5353 295.773 61.5555C295.47 61.5555 295.357 61.8527 295.319 62.0013C295.13 63.0042 294.827 64.4158 294.751 64.713C294.373 65.8274 293.237 66.1989 292.14 65.9017C291.307 65.716 290.815 64.6387 291.156 63.4129C291.458 62.2241 293.124 56.6149 293.729 54.8318C294.865 51.5628 296.076 48.2938 296.379 47.6995C296.871 46.8079 297.855 46.2507 298.574 46.2507C299.482 46.2879 300.239 46.5851 300.845 47.4766C301.223 48.071 303.38 53.1973 304.137 55.3519C304.818 57.2835 306.597 62.8928 306.673 63.71ZM296.151 58.1008C296.114 58.3237 296.227 58.5837 296.53 58.5837C296.758 58.5837 297.04 58.5855 297.351 58.5876C298.432 58.5947 299.87 58.6042 300.693 58.5465C300.958 58.5094 301.109 58.3237 301.034 58.1008C300.89 57.5356 300.761 57.1048 300.667 56.7894C300.612 56.6074 300.569 56.4636 300.542 56.3548C300.397 55.8679 299.981 54.4061 299.616 53.1189L299.609 53.0943L299.608 53.0918C299.307 52.0331 299.041 51.0985 298.99 50.9313C298.839 50.5227 298.347 50.3741 298.157 51.0056C297.968 51.6371 296.492 56.5777 296.151 58.1008Z" fill="#EA580C"/>
<path d="M288.339 58.0145C288.324 57.04 288.311 56.2528 288.324 55.872C288.362 54.6832 288.4 49.8541 288.4 47.7738C288.4 46.9937 288.021 46.3994 287.189 46.3622C286.848 46.3251 285.22 46.2879 284.88 46.3622C284.501 46.4365 283.934 46.5851 283.896 47.2909C283.882 47.6118 283.864 47.9616 283.846 48.3039L283.845 48.3058C283.813 48.9133 283.782 49.4981 283.782 49.8541C283.782 49.9475 283.784 50.1479 283.787 50.4111V50.4152C283.796 51.3037 283.811 52.9023 283.782 53.5317C283.744 53.9031 283.366 54.0146 283.215 54.0146C283.006 54.0146 282.193 54.0239 281.379 54.0332C280.565 54.0424 279.752 54.0517 279.543 54.0517C279.203 54.0517 278.976 53.7917 278.976 53.4945C278.916 52.8521 278.95 51.1765 278.968 50.3268V50.3248L278.968 50.3147C278.972 50.0897 278.976 49.9243 278.976 49.8541C278.976 49.7583 278.978 49.5834 278.981 49.3689V49.3672C278.99 48.7502 279.004 47.8071 278.976 47.4766C278.938 46.7337 278.446 46.4365 278.067 46.3994C277.273 46.2879 275.569 46.3251 275.38 46.3622C274.813 46.4736 274.472 46.8451 274.396 47.4023C274.283 47.8481 274.283 48.2196 274.283 48.7025C274.283 49.1029 274.307 49.9117 274.333 50.8029L274.333 50.8046C274.373 52.1454 274.419 53.6723 274.396 54.2746C274.366 56.476 274.289 59.6051 274.221 62.3791L274.221 62.3808C274.203 63.1169 274.185 63.8281 274.169 64.4902C274.169 65.2331 274.661 65.7903 275.418 65.8275C275.646 65.8554 276.579 65.8414 277.157 65.8327C277.347 65.8298 277.5 65.8275 277.575 65.8275C278.332 65.8275 278.824 65.456 278.862 64.6759C278.862 64.6016 278.862 59.7724 278.9 57.4693C278.9 57.135 279.278 56.9121 279.506 56.9121C279.638 56.8935 280.433 56.8842 281.228 56.8749C282.022 56.8657 282.817 56.8564 282.95 56.8378C283.252 56.8378 283.707 57.135 283.707 57.4322C283.707 59.5867 283.707 63.4872 283.782 64.6759C283.782 65.196 284.199 65.7532 284.766 65.7903C285.107 65.8275 286.848 65.8275 287.189 65.7903C287.87 65.7532 288.248 65.3074 288.286 64.4159C288.413 62.7253 288.37 59.9864 288.339 58.0145Z" fill="#EA580C"/>
<path d="M270.713 61.1469C270.789 62.187 270.751 63.2643 270.675 64.3044C270.638 65.3445 270.183 65.8646 269.389 65.976C268.14 66.1618 267.421 65.1588 267.345 64.5273C267.197 63.4862 267.177 61.3878 267.161 59.6001C267.152 58.6453 267.144 57.7782 267.118 57.2092C267.096 56.5352 267.125 55.6956 267.154 54.8918C267.174 54.3224 267.193 53.7708 267.193 53.3088C267.193 53.0487 266.777 53.0116 266.664 53.2345C266.399 53.792 265.869 54.9064 265.642 55.4262C265.41 55.9172 265.009 56.8097 264.538 57.8585L264.537 57.8599C263.547 60.0643 262.247 62.9586 261.554 64.2673C260.949 65.4188 259.813 65.7532 259.094 65.7532C257.883 65.6789 257.656 64.3787 257.542 63.4872C257.453 62.6707 257.443 61.4479 257.434 60.3249C257.428 59.5575 257.422 58.8363 257.391 58.3237C257.268 55.9337 257.345 53.248 257.419 50.6881L257.419 50.686L257.419 50.6835C257.436 50.102 257.453 49.526 257.467 48.9625C257.467 48.3797 257.647 47.873 257.838 47.3376C257.878 47.2246 257.919 47.1102 257.959 46.9937C258.148 46.3993 258.716 46.065 259.321 46.065C260.003 46.065 260.684 46.3622 260.911 47.0308C261.024 47.4023 261.138 47.8481 261.1 48.2567C261.085 49.084 261.059 49.9623 261.032 50.8495C260.991 52.2331 260.949 53.6387 260.949 54.9061C260.949 55.1479 260.93 55.6542 260.908 56.2548C260.875 57.1302 260.835 58.2061 260.835 58.9552C260.835 59.2895 261.214 59.2523 261.289 59.1038C261.64 58.389 262.26 57.0139 262.765 55.8928C262.969 55.4407 263.154 55.0299 263.295 54.7204C263.685 53.905 264.037 53.0822 264.385 52.2686C264.814 51.2659 265.237 50.2773 265.717 49.334C265.789 49.1936 265.867 49.032 265.951 48.858C266.268 48.2031 266.669 47.3734 267.118 46.8451C267.685 46.1021 268.934 45.7678 269.767 46.1764C270.297 46.4365 270.486 46.6965 270.6 47.2166C270.709 47.5644 270.68 48.2591 270.656 48.8565C270.646 49.0885 270.638 49.3059 270.638 49.4826C270.638 50.8384 270.656 52.0272 270.675 53.2159C270.694 54.4046 270.713 55.5933 270.713 56.9492C270.713 57.2315 270.707 57.6249 270.7 58.0645L270.699 58.0673L270.699 58.0725L270.699 58.0741C270.682 59.1367 270.66 60.4654 270.713 61.1469Z" fill="#EA580C"/>
<path d="M229.9 65.8646C228.878 65.8274 227.25 65.8274 226.191 65.8646C224.98 65.8646 224.753 65.1959 224.79 64.3044C224.866 62.5956 225.017 58.6208 225.017 56.912C225.055 55.0175 224.98 51.0427 224.942 49.1482C224.942 48.4424 225.017 47.7366 225.282 47.0308C225.547 46.3993 226.039 46.2136 226.758 46.2507C227.329 46.2973 228.316 46.3147 229.207 46.3304C229.735 46.3396 230.229 46.3483 230.581 46.3622C230.823 46.3622 231.404 46.3537 232.077 46.344C233.403 46.3248 235.086 46.3004 235.236 46.325C236.107 46.3993 236.447 46.6222 236.599 47.5137C236.637 47.7738 236.637 48.591 236.599 48.8882C236.561 49.5568 236.182 50.0769 235.501 50.1512C235.12 50.2011 234.755 50.2175 234.385 50.2341C234.204 50.2423 234.022 50.2505 233.836 50.2626C233.581 50.2783 233.017 50.2742 232.407 50.2697C231.569 50.2636 230.645 50.2568 230.316 50.2998C230.013 50.3369 229.862 50.6341 229.862 50.9313C229.862 51.0061 229.86 51.1561 229.857 51.3429C229.848 51.8985 229.834 52.7798 229.862 52.9744C229.862 53.3459 230.013 53.4945 230.392 53.4945H234.252C234.933 53.4945 235.198 53.8288 235.312 54.4975C235.388 54.7203 235.425 55.4261 235.388 55.6862C235.35 56.2062 235.009 56.8377 234.441 56.912C234.048 56.9488 233.229 56.9855 232.41 57.0223C231.573 57.0598 230.736 57.0974 230.354 57.1349C230.089 57.1349 229.862 57.2464 229.862 57.5064V61.4069C229.824 61.7784 230.089 61.9641 230.467 61.9641C230.841 61.9641 231.732 61.955 232.634 61.9459C233.558 61.9365 234.493 61.9269 234.896 61.9269C235.099 61.9269 235.312 61.9358 235.529 61.9449C235.756 61.9544 235.988 61.9641 236.22 61.9641C236.561 61.9641 236.826 62.1127 236.977 62.4099C237.242 63.0414 237.242 64.5644 237.053 65.1959C236.939 65.6045 236.712 65.7903 236.296 65.7531C235.568 65.7301 233.658 65.7786 232.079 65.8187C231.115 65.8432 230.273 65.8646 229.9 65.8646Z" fill="#EA580C"/>
<path d="M213.933 65.9046C214.095 65.8906 214.265 65.8759 214.45 65.8646C215.699 65.7903 215.964 64.7501 215.964 63.8957V57.6178C215.964 57.4485 215.965 57.1608 215.967 56.7975L215.967 56.7861C215.974 55.1527 215.988 52.0162 215.926 51.2285V50.2626C215.926 49.9654 216.077 49.6683 216.38 49.6311C216.754 49.5852 216.897 49.5818 217.095 49.5772C217.217 49.5744 217.36 49.571 217.591 49.5568C217.822 49.5417 218.202 49.5389 218.608 49.5359C219.202 49.5315 219.85 49.5266 220.165 49.4825C220.846 49.4082 221.338 49.111 221.376 48.331V47.8109C221.338 47.0308 220.808 46.3993 219.938 46.325C219.797 46.302 218.878 46.3216 218.017 46.3399C217.483 46.3513 216.972 46.3621 216.683 46.3621C216.036 46.3357 214.62 46.3469 213.531 46.3556C213.091 46.3591 212.705 46.3621 212.444 46.3621C211.914 46.3621 208.924 46.3621 207.335 46.4736C206.313 46.5479 206.048 46.9936 205.972 47.3651C205.861 47.8365 205.895 48.1309 205.932 48.4557L205.934 48.4795C206.01 48.9253 206.351 49.2968 206.918 49.3711C207.864 49.4825 209.719 49.4454 210.476 49.4082C211.119 49.4082 211.271 49.8169 211.271 50.1883C211.309 51.7485 211.346 55.8719 211.309 57.3949C211.309 59.1037 211.271 62.3727 211.195 64.0815C211.157 64.973 211.649 65.8274 212.898 65.9389C213.24 65.9647 213.564 65.9366 213.933 65.9046Z" fill="#EA580C"/>
<path d="M197.116 65.8646C196.094 65.8274 194.467 65.8274 193.407 65.8646C192.196 65.8646 191.969 65.1959 192.007 64.3044C192.083 62.5956 192.234 58.6208 192.234 56.912C192.272 55.0175 192.196 51.0427 192.158 49.1482C192.158 48.4424 192.234 47.7366 192.499 47.0308C192.764 46.3993 193.256 46.2136 193.975 46.2507C194.545 46.2973 195.533 46.3147 196.423 46.3304C196.951 46.3396 197.445 46.3483 197.797 46.3622C198.04 46.3622 198.621 46.3537 199.294 46.344C200.62 46.3248 202.302 46.3004 202.453 46.325C203.323 46.3993 203.664 46.6222 203.815 47.5137C203.853 47.7738 203.853 48.591 203.815 48.8882C203.777 49.5568 203.399 50.0769 202.718 50.1512C202.336 50.2011 201.972 50.2175 201.602 50.2341C201.421 50.2423 201.239 50.2505 201.052 50.2626C200.797 50.2783 200.233 50.2742 199.623 50.2697C198.785 50.2636 197.861 50.2568 197.532 50.2998C197.23 50.3369 197.078 50.6341 197.078 50.9313C197.078 51.006 197.076 51.1558 197.073 51.3425C197.064 51.8981 197.05 52.7798 197.078 52.9744C197.078 53.3459 197.23 53.4945 197.608 53.4945H201.469C202.15 53.4945 202.415 53.8288 202.528 54.4975C202.604 54.7203 202.642 55.4261 202.604 55.6862C202.566 56.2062 202.226 56.8377 201.658 56.912C201.265 56.9488 200.446 56.9855 199.627 57.0223C198.79 57.0598 197.953 57.0974 197.57 57.1349C197.305 57.1349 197.078 57.2464 197.078 57.5064V61.4069C197.04 61.7784 197.305 61.9641 197.684 61.9641C198.058 61.9641 198.949 61.955 199.85 61.9459C200.774 61.9365 201.71 61.9269 202.112 61.9269C202.316 61.9269 202.528 61.9358 202.746 61.9449C202.973 61.9544 203.205 61.9641 203.437 61.9641C203.777 61.9641 204.042 62.1127 204.194 62.4099C204.459 63.0414 204.459 64.5644 204.269 65.1959C204.156 65.6045 203.929 65.7903 203.512 65.7531C202.784 65.7301 200.875 65.7786 199.296 65.8187C198.331 65.8432 197.489 65.8646 197.116 65.8646Z" fill="#EA580C"/>
<path fill-rule="evenodd" clip-rule="evenodd" d="M187.192 63.2642C188.857 61.184 189.047 57.8779 187.798 56.0948C187.192 55.1661 186.057 54.386 185.375 54.126C185.035 53.9774 185.11 53.6802 185.375 53.5688C186.435 53.0487 187.116 51.5999 187.078 50.4112C186.889 47.0308 184.089 46.3621 181.515 46.2136C180.607 46.1393 176.481 46.1764 175.724 46.6593C174.975 47.1275 174.992 48.499 175.003 49.3642C175.004 49.46 175.005 49.5496 175.005 49.6311C175.081 51.9343 175.081 54.0517 175.081 56.3177C175.058 57.3134 175.076 58.23 175.094 59.1617C175.106 59.7943 175.119 60.4338 175.119 61.1097C175.137 61.545 175.174 62.0422 175.211 62.5453C175.249 63.0726 175.289 63.6062 175.308 64.0815C175.346 65.4188 176.746 65.8274 178.147 65.8274C178.352 65.8274 178.566 65.8289 178.785 65.8304C181.478 65.8491 185.127 65.8744 187.192 63.2642ZM179.471 52.38C179.395 51.6742 179.395 50.2998 179.471 49.6311C179.547 49.0739 181.099 48.9996 182.045 49.4454C183.029 49.9283 183.332 51.3771 182.537 52.2314C182.045 52.7887 181.326 52.863 180.569 52.863C180.001 52.9001 179.509 52.7887 179.471 52.38ZM180.758 55.5004C183.256 55.4261 184.126 57.8036 183.937 59.7724C183.748 61.6298 182.31 62.5956 180.455 62.5956C180.077 62.5956 179.66 62.5213 179.585 61.7412C179.433 60.2553 179.433 57.1349 179.509 56.4291C179.514 56.373 179.514 56.3163 179.515 56.2599C179.516 55.9051 179.517 55.5645 180.758 55.5004Z" fill="#EA580C"/>
<path d="M337.245 25.617C337.268 26.2338 337.209 26.8778 337.15 27.5328C337.109 27.9827 337.068 28.4388 337.052 28.8939C336.975 29.9734 336.512 30.5132 335.74 30.6288C334.428 30.8216 333.734 29.7807 333.657 29.1253C333.513 28.0752 333.533 26.0648 333.55 24.2739V24.2712C333.561 23.1701 333.57 22.1522 333.541 21.4918C333.464 20.3356 333.464 18.6015 333.464 17.4834C333.464 17.175 333.039 17.1739 332.962 17.4052C332.692 17.945 332.152 19.1016 331.882 19.6798C331.149 21.2605 328.448 26.8121 327.406 28.8168C326.789 30.0505 325.863 30.3975 325.169 30.3589C323.895 30.3204 323.471 28.9711 323.394 28.0458L323.366 27.6932L323.366 27.6899C323.249 26.2273 323.085 24.1627 323.085 22.9183C323.103 21.4255 323.08 19.9007 323.058 18.3841V18.3806C323.031 16.5691 323.005 14.7688 323.047 13.0488C323.085 11.3139 323.278 9.88745 324.937 9.926C326.172 9.96455 326.673 10.9284 326.75 11.9693C326.881 13.6141 326.835 15.312 326.791 16.9072C326.771 17.6676 326.75 18.4047 326.75 19.1016C326.75 19.3725 326.744 19.9135 326.736 20.5476L326.736 20.5515V20.5545C326.725 21.453 326.712 22.5368 326.712 23.3038C326.712 23.6893 327.098 23.6122 327.175 23.458C327.262 23.2839 327.371 23.0668 327.495 22.821C328.083 21.6515 328.998 19.8326 329.413 18.9088C329.738 18.2413 330.109 17.4142 330.499 16.5457L330.5 16.5425L330.501 16.5401L330.504 16.5349L330.505 16.5327L330.505 16.531C330.992 15.4474 331.507 14.3003 331.998 13.3186C332.052 13.2031 332.112 13.0697 332.178 12.9244C332.486 12.2452 332.91 11.3073 333.387 10.7356C334.004 10.0031 335.046 9.61758 335.895 10.0802C336.435 10.3501 336.628 10.62 336.743 11.1211C336.898 11.6609 337.129 12.856 337.129 13.5114C337.108 15.0381 337.145 16.3782 337.183 17.7369V17.7406L337.183 17.743C337.214 18.8527 337.245 19.9751 337.245 21.222V25.617Z" fill="#EA580C"/>
<path d="M325.747 6.3406L325.729 6.30446C325.582 6.01621 325.084 5.04053 325.747 4.45151C326.442 3.87322 327.368 3.95033 327.908 4.49007C328.133 4.73632 328.313 5.00933 328.49 5.27607C328.948 5.96982 329.378 6.62118 330.493 6.64902C331.644 6.67298 331.99 5.98214 332.328 5.30766C332.534 4.89691 332.737 4.49222 333.117 4.25875C333.927 3.75757 335.084 3.98888 335.316 4.91415C335.509 5.64665 334.969 6.88034 333.695 7.7285C332.113 8.76942 329.644 8.61521 328.718 8.38389C327.754 8.11402 326.249 7.38152 325.747 6.3406Z" fill="#EA580C"/>
<path d="M319.509 16.3257C319.509 15.015 319.47 12.9717 319.316 11.3524C319.278 10.5814 319.162 9.96454 318.274 9.92599C318.098 9.92599 317.95 9.9212 317.81 9.91669C317.554 9.90839 317.326 9.90103 317.001 9.92599C316.847 9.92599 316.307 10.0417 316.152 10.3115C315.959 10.6585 315.844 10.9669 315.805 11.3524C315.713 12.2456 315.719 13.1634 315.725 14.0862V14.0878C315.726 14.3192 315.728 14.5519 315.728 14.7836C315.741 15.6763 315.766 16.7503 315.792 17.8285C315.843 20.01 315.895 22.2086 315.844 22.9568C315.805 24.0363 315.805 25.1929 315.805 26.3109C315.805 27.1205 315.882 27.9301 315.959 28.7397C315.998 29.5493 316.615 30.2047 317.31 30.2818C318.313 30.436 318.93 30.1276 319.278 29.2024C319.364 29.0289 319.408 28.552 319.44 28.1942C319.451 28.0749 319.461 27.9687 319.47 27.8916C319.577 26.3236 319.555 25.0122 319.531 23.591V23.5875C319.52 22.948 319.509 22.2863 319.509 21.5689C319.509 21.1922 319.512 20.7072 319.516 20.1761L319.516 20.1312L319.516 20.1257V20.0906C319.525 18.7908 319.536 17.2397 319.509 16.3257Z" fill="#EA580C"/>
<path fill-rule="evenodd" clip-rule="evenodd" d="M313.645 24.5375C313.452 25.8483 313.181 26.7735 312.41 28.0843C311.908 28.9325 310.635 29.9349 309.67 30.1662C308.397 30.436 308.05 30.4746 306.7 30.5131C305.388 30.5517 304.886 30.5517 303.845 30.5131C302.494 30.4746 302.147 30.0891 301.915 29.0481C301.838 28.7783 301.8 28.4313 301.8 28.1229C301.8 27.5403 301.769 26.9653 301.739 26.3912V26.3894C301.7 25.6726 301.662 24.9564 301.684 24.2291C301.742 22.205 301.703 20.1521 301.665 18.0992C301.626 16.0462 301.587 13.9933 301.645 11.9693C301.645 11.7765 301.645 11.5838 301.684 11.4295C301.877 10.4272 302.726 9.92599 303.729 10.0802C304.77 10.2344 305.233 10.4272 305.388 11.3139C305.426 11.5838 305.465 11.8536 305.465 12.0849C305.515 12.6858 305.533 13.4004 305.549 14.081V14.0844C305.558 14.4508 305.567 14.8072 305.581 15.1306C305.581 15.8631 305.812 16.0944 306.468 16.1715C306.815 16.2101 307.134 16.2197 307.452 16.2294C307.77 16.239 308.089 16.2486 308.436 16.2872C310.982 16.5571 312.487 18.1377 313.143 20.0268C313.567 21.3762 313.837 23.2267 313.645 24.5375ZM309.323 20.9521C308.822 19.7955 307.587 19.5256 306.43 19.6027C305.851 19.6413 305.619 19.8726 305.619 20.4509C305.581 20.7593 305.542 24.7688 305.619 26.1952C305.619 26.6964 305.928 27.0049 306.43 26.9663L306.59 26.9617C307.817 26.9278 309.11 26.8921 309.516 25.1929C309.825 23.9206 309.863 22.1472 309.323 20.9521Z" fill="#EA580C"/>
<path d="M298.079 22.3649L298.079 22.3586L298.079 22.3557C298.064 21.3492 298.051 20.5364 298.064 20.1425C298.103 18.9088 298.141 13.897 298.141 11.738C298.141 10.9284 297.755 10.3116 296.907 10.273C296.559 10.2344 294.9 10.1959 294.553 10.273C294.167 10.3501 293.588 10.5043 293.55 11.2368C293.536 11.5704 293.517 11.9341 293.499 12.2899C293.466 12.9204 293.434 13.5274 293.434 13.897C293.434 13.9939 293.436 14.2019 293.439 14.475C293.448 15.3962 293.464 17.0595 293.434 17.7137C293.396 18.0992 293.01 18.2149 292.855 18.2149C292.643 18.2149 291.815 18.2245 290.986 18.2341L290.983 18.2342C290.154 18.2438 289.325 18.2534 289.113 18.2534C288.766 18.2534 288.534 17.9835 288.534 17.6751C288.473 17.008 288.508 15.2677 288.526 14.3863L288.526 14.3845L288.526 14.375C288.531 14.1415 288.534 13.9699 288.534 13.897C288.534 13.7975 288.537 13.616 288.54 13.3934C288.549 12.7531 288.563 11.7727 288.534 11.4296C288.496 10.6585 287.994 10.3501 287.608 10.3116C286.798 10.1959 285.062 10.2344 284.869 10.273C284.29 10.3887 283.943 10.7742 283.866 11.3525C283.75 11.8151 283.75 12.2006 283.75 12.7018C283.75 13.1171 283.774 13.9556 283.802 14.8797L283.802 14.8817C283.842 16.2733 283.889 17.8596 283.866 18.4847C283.835 20.7681 283.757 24.0132 283.687 26.891L283.687 26.8961L283.686 26.9159C283.668 27.6733 283.65 28.4051 283.634 29.0867C283.634 29.8578 284.136 30.4361 284.907 30.4746C285.139 30.5036 286.09 30.489 286.68 30.48C286.874 30.477 287.03 30.4746 287.107 30.4746C287.878 30.4746 288.38 30.0891 288.418 29.2795C288.418 29.2024 288.418 24.1905 288.457 21.8003C288.457 21.4533 288.843 21.222 289.074 21.222C289.209 21.2027 290.02 21.1931 290.83 21.1834C291.64 21.1738 292.45 21.1641 292.585 21.1449C292.894 21.1449 293.357 21.4533 293.357 21.7617C293.357 23.9978 293.357 28.0458 293.434 29.2795C293.434 29.8192 293.859 30.3975 294.437 30.4361C294.785 30.4746 296.559 30.4746 296.907 30.4361C297.601 30.3975 297.987 29.9349 298.025 29.0096C298.155 27.2551 298.111 24.4114 298.079 22.3649Z" fill="#EA580C"/>
<path d="M280.107 22.3662C280.138 24.4128 280.182 27.2551 280.053 29.0096C280.014 29.9349 279.628 30.3975 278.934 30.4361C278.587 30.4746 276.812 30.4746 276.465 30.4361C275.886 30.3975 275.462 29.8192 275.462 29.2795C275.384 28.0458 275.384 23.9978 275.384 21.7617C275.384 21.4533 274.921 21.1449 274.613 21.1449C274.478 21.1641 273.668 21.1738 272.858 21.1834C272.047 21.1931 271.237 21.2027 271.102 21.222C270.87 21.222 270.484 21.4533 270.484 21.8003C270.446 24.1905 270.446 29.2024 270.446 29.2795C270.407 30.0891 269.906 30.4746 269.134 30.4746C269.058 30.4746 268.904 30.477 268.711 30.4799L268.708 30.48C268.119 30.489 267.167 30.5036 266.935 30.4746C266.163 30.4361 265.662 29.8578 265.662 29.0867C265.678 28.3991 265.696 27.6606 265.714 26.8961L265.714 26.891C265.784 24.0132 265.863 20.7681 265.893 18.4847C265.916 17.8596 265.87 16.2749 265.829 14.8833L265.829 14.8813C265.802 13.9572 265.777 13.1171 265.777 12.7018C265.777 12.2006 265.777 11.8151 265.893 11.3525C265.97 10.7742 266.318 10.3887 266.896 10.273C267.089 10.2344 268.825 10.1959 269.636 10.3116C270.021 10.3501 270.523 10.6585 270.562 11.4296C270.59 11.7727 270.576 12.7521 270.567 13.3925C270.564 13.6151 270.562 13.7975 270.562 13.897C270.562 13.9699 270.558 14.1415 270.553 14.375L270.553 14.3845L270.553 14.3863C270.536 15.2677 270.501 17.008 270.562 17.6751C270.562 17.9835 270.793 18.2534 271.14 18.2534C271.352 18.2534 272.181 18.2438 273.01 18.2342L273.013 18.2341C273.842 18.2245 274.671 18.2149 274.883 18.2149C275.037 18.2149 275.423 18.0992 275.462 17.7137C275.491 17.0595 275.475 15.3962 275.466 14.475L275.466 14.4687L275.466 14.4512C275.463 14.1898 275.462 13.9911 275.462 13.897C275.462 13.5274 275.493 12.9217 275.526 12.2912C275.544 11.9354 275.563 11.5704 275.577 11.2368C275.616 10.5043 276.195 10.3501 276.58 10.273C276.928 10.1959 278.587 10.2344 278.934 10.273C279.783 10.3116 280.169 10.9284 280.169 11.738C280.169 13.897 280.13 18.9088 280.091 20.1425C280.079 20.5364 280.091 21.3492 280.107 22.3557L280.107 22.3586L280.107 22.3662Z" fill="#EA580C"/>
<path fill-rule="evenodd" clip-rule="evenodd" d="M248.696 17.0582C248.311 19.0629 248.195 21.4532 248.581 23.5351C248.928 25.6169 249.854 28.0843 251.899 29.5878C253.905 31.0914 257.455 31.2842 259.422 28.9324C260.271 27.9301 261.159 26.5807 261.583 25.2699C262.162 23.4194 262.2 22.1086 262.2 20.2195C262.2 17.297 261.574 15.8901 260.93 14.4454C260.878 14.3273 260.825 14.209 260.773 14.0896C260.348 13.1258 259.654 12.2391 259.114 11.7765C257.686 10.6199 255.718 10.2344 253.944 10.697C252.13 11.1211 251.011 11.8921 250.047 13.627C249.314 14.9378 248.812 16.3257 248.696 17.0582ZM259.037 18.1762C259.114 19.2171 259.075 21.9929 258.149 23.9206C257.725 24.8073 256.76 26.0024 255.41 26.0024C253.828 25.9639 253.018 24.576 252.632 23.3037C252.439 22.6869 252.246 21.9158 252.13 20.952C252.053 20.1039 251.976 19.1015 252.13 18.022C252.323 16.4799 253.095 14.745 254.329 14.0511C255.526 13.3571 256.953 13.627 257.802 14.8607C258.535 15.9787 258.882 16.6727 259.037 18.1762Z" fill="#EA580C"/>
<path d="M245.598 25.617C245.675 26.6964 245.636 27.8145 245.559 28.8939C245.521 29.9734 245.058 30.5132 244.247 30.6288C242.974 30.8216 242.241 29.7806 242.164 29.1252C242.013 28.0447 241.993 25.8668 241.977 24.0113C241.968 23.0202 241.959 22.121 241.932 21.5304C241.91 20.8308 241.94 19.9595 241.969 19.1252C241.99 18.5346 242.01 17.9617 242.01 17.4823C242.01 17.2125 241.585 17.1739 241.47 17.4052C241.199 17.9838 240.659 19.1404 240.428 19.6798C240.191 20.1894 239.783 21.1157 239.302 22.2042L239.302 22.2059C238.292 24.4936 236.967 27.4973 236.261 28.8554C235.644 30.0505 234.486 30.3975 233.753 30.3975C232.518 30.3204 232.287 28.971 232.171 28.0458C232.079 27.1988 232.069 25.9303 232.06 24.7652V24.7629C232.054 23.9667 232.048 23.2189 232.017 22.6869C231.891 20.2068 231.97 17.4198 232.046 14.7633L232.046 14.7555C232.063 14.1525 232.08 13.5561 232.094 12.9717C232.094 12.3668 232.278 11.8409 232.473 11.2852C232.514 11.1679 232.555 11.0493 232.596 10.9284C232.788 10.3115 233.367 9.96454 233.984 9.96454C234.679 9.96454 235.373 10.273 235.605 10.9669C235.721 11.3524 235.836 11.8151 235.798 12.2392C235.783 13.0974 235.756 14.0086 235.729 14.9291C235.687 16.3651 235.644 17.8247 235.644 19.1401C235.644 19.3911 235.624 19.9165 235.602 20.5398C235.569 21.4484 235.528 22.5649 235.528 23.3423C235.528 23.6893 235.914 23.6508 235.991 23.4966C236.347 22.757 236.976 21.3364 237.49 20.1748L237.492 20.1715L237.496 20.1623L237.502 20.1494C237.707 19.686 237.893 19.2652 238.036 18.9473C238.433 18.1021 238.791 17.2491 239.146 16.4056L239.147 16.4032C239.584 15.3626 240.015 14.3362 240.505 13.3572C240.577 13.2126 240.656 13.0463 240.741 12.8673L240.743 12.8633C241.066 12.1836 241.475 11.3225 241.932 10.7742C242.511 10.0031 243.784 9.65612 244.633 10.0802C245.173 10.3501 245.366 10.6199 245.482 11.1597C245.593 11.5207 245.564 12.2416 245.539 12.8616C245.53 13.1021 245.521 13.3283 245.521 13.5114C245.521 14.9186 245.54 16.1523 245.559 17.3859C245.579 18.6196 245.598 19.8533 245.598 21.2605C245.598 21.5551 245.591 21.9664 245.584 22.4257L245.584 22.4279C245.566 23.5307 245.543 24.9098 245.598 25.617Z" fill="#EA580C"/>
<path d="M228.44 30.6875C228.43 30.4045 228.421 30.1226 228.421 29.0481C228.421 28.2385 227.919 27.5445 227.109 27.506H226.607C226.029 27.506 225.604 27.159 225.566 26.4265C225.566 26.0829 225.555 25.6969 225.545 25.3297C225.536 24.9964 225.527 24.6785 225.527 24.4218C225.527 23.8802 225.528 23.3354 225.529 22.7871V22.7853C225.533 19.4702 225.538 16.0204 225.373 12.3162C225.334 10.8127 224.64 10.2344 223.868 10.1958C223.746 10.1714 223.701 10.1779 223.645 10.1859C223.613 10.1906 223.577 10.1958 223.521 10.1958C222.402 10.1958 221.9 10.9669 221.862 12.2006C221.862 12.211 221.859 12.2727 221.854 12.3793C221.823 13.0575 221.707 15.5546 221.707 18.2533C221.707 21.4532 221.707 24.9615 221.63 26.5036C221.592 27.0819 221.283 27.3518 220.897 27.3903C220.087 27.4674 217.116 27.5445 216.113 27.5445C215.573 27.506 215.303 27.2747 215.303 26.6964C215.303 26.3691 215.288 25.7621 215.269 24.9776C215.235 23.5444 215.187 21.5183 215.187 19.5256C215.187 17.4451 215.235 15.3646 215.269 13.877C215.288 13.0494 215.303 12.4047 215.303 12.0463C215.303 11.1596 214.762 10.35 213.759 10.2344C213.574 10.2079 213.407 10.2178 213.258 10.2266C213.19 10.2306 213.125 10.2344 213.065 10.2344C212.062 10.35 211.637 11.044 211.637 12.2391C211.637 13.2699 211.578 14.9962 211.515 16.8292C211.443 18.9038 211.367 21.1157 211.367 22.6098C211.367 23.1174 211.388 23.8199 211.412 24.6255L211.412 24.6291L211.412 24.634L211.412 24.636L211.412 24.6377C211.445 25.726 211.483 27.0012 211.483 28.2385C211.483 29.5107 212.293 30.3589 213.412 30.3974C213.798 30.436 216.383 30.4745 216.769 30.4745C217.17 30.4745 218.993 30.4515 220.643 30.4305L220.647 30.4305C222.01 30.4132 223.255 30.3974 223.482 30.3974C224.061 30.436 224.447 30.8601 224.447 31.3998C224.447 31.901 224.447 32.0938 224.485 32.5178C224.524 33.366 225.064 33.9057 225.951 33.9828C226.209 34.0085 226.432 34 226.654 33.9914C226.766 33.9871 226.877 33.9828 226.993 33.9828C227.919 33.9443 228.459 33.2889 228.459 32.3636C228.459 31.2602 228.45 30.973 228.44 30.6875Z" fill="#EA580C"/>
<path d="M207.84 22.3662C207.871 24.4128 207.915 27.2551 207.786 29.0096C207.747 29.9349 207.362 30.3975 206.667 30.4361C206.32 30.4746 204.545 30.4746 204.198 30.4361C203.619 30.3975 203.195 29.8192 203.195 29.2795C203.117 28.0458 203.117 23.9978 203.117 21.7617C203.117 21.4533 202.654 21.1449 202.346 21.1449C202.211 21.1641 201.401 21.1738 200.591 21.1834C199.78 21.1931 198.97 21.2027 198.835 21.222C198.603 21.222 198.217 21.4533 198.217 21.8003C198.179 24.1905 198.179 29.2024 198.179 29.2795C198.14 30.0891 197.639 30.4746 196.867 30.4746C196.791 30.4746 196.636 30.477 196.441 30.48C195.852 30.489 194.9 30.5036 194.668 30.4746C193.896 30.4361 193.395 29.8578 193.395 29.0867C193.411 28.3993 193.429 27.6611 193.447 26.8968C193.517 24.0176 193.596 20.7697 193.626 18.4847C193.649 17.8593 193.603 16.2738 193.562 14.8817C193.535 13.9568 193.51 13.1174 193.51 12.7018C193.51 12.2006 193.51 11.8151 193.626 11.3525C193.703 10.7742 194.051 10.3887 194.629 10.273C194.822 10.2344 196.558 10.1959 197.369 10.3116C197.755 10.3501 198.256 10.6585 198.295 11.4296C198.323 11.7728 198.309 12.7528 198.3 13.3932C198.297 13.6158 198.295 13.7975 198.295 13.897C198.295 13.971 198.291 14.147 198.286 14.3863C198.269 15.2679 198.234 17.0081 198.295 17.6751C198.295 17.9835 198.526 18.2534 198.873 18.2534C199.085 18.2534 199.914 18.2438 200.743 18.2342L200.746 18.2341C201.575 18.2245 202.404 18.2149 202.616 18.2149C202.77 18.2149 203.156 18.0992 203.195 17.7137C203.224 17.0595 203.208 15.3962 203.199 14.475L203.199 14.461L203.199 14.4494L203.199 14.4443C203.197 14.1863 203.195 13.9903 203.195 13.897C203.195 13.5272 203.226 12.9211 203.259 12.2902C203.278 11.9347 203.296 11.5701 203.31 11.2368C203.349 10.5043 203.928 10.3501 204.314 10.273C204.661 10.1959 206.32 10.2344 206.667 10.273C207.516 10.3116 207.902 10.9284 207.902 11.738C207.902 13.897 207.863 18.9088 207.825 20.1425C207.812 20.5364 207.824 21.3492 207.84 22.3557L207.84 22.3586L207.84 22.3662Z" fill="#EA580C"/>
<path fill-rule="evenodd" clip-rule="evenodd" d="M188.556 30.3975C189.521 30.1276 189.984 29.1638 189.907 28.2771C189.83 27.4289 188.016 21.6075 187.322 19.6027C186.55 17.3667 184.351 12.0464 183.965 11.4295C183.348 10.5043 182.576 10.1959 181.65 10.1573C180.917 10.1573 179.914 10.7356 179.412 11.6609C179.104 12.2777 177.869 15.6703 176.712 19.063C176.094 20.9135 174.397 26.735 174.088 27.9687C173.741 29.2409 174.242 30.3589 175.091 30.5517C176.21 30.8601 177.368 30.4746 177.753 29.318C177.831 29.0096 178.139 27.5446 178.332 26.5037C178.371 26.3494 178.486 26.041 178.795 26.041C178.942 26.0201 180.124 26.0105 181.427 26C182.523 25.9911 183.705 25.9815 184.428 25.9639C184.814 25.9639 184.891 26.1952 184.93 26.4265C185.085 26.9789 185.187 27.4617 185.272 27.868C185.377 28.3692 185.458 28.7541 185.586 29.0096C186.203 30.436 187.553 30.6674 188.556 30.3975ZM179.567 22.9568C179.258 22.9568 179.142 22.6869 179.181 22.4556C179.528 20.875 181.033 15.7474 181.226 15.0921C181.419 14.4367 181.92 14.5909 182.075 15.0149C182.127 15.19 182.402 16.176 182.713 17.2869L182.714 17.2903C183.086 18.625 183.509 20.139 183.656 20.6436C183.685 20.7565 183.728 20.9056 183.784 21.0945C183.88 21.4218 184.011 21.8691 184.158 22.4556C184.235 22.6869 184.081 22.8797 183.811 22.9183C182.972 22.9781 181.505 22.9683 180.404 22.9609C180.087 22.9587 179.8 22.9568 179.567 22.9568Z" fill="#EA580C"/>
<path d="M164.202 30.5131C164.014 30.5249 163.841 30.5402 163.676 30.5547C163.299 30.5879 162.969 30.617 162.621 30.5902C161.347 30.4746 160.846 29.5878 160.884 28.6626C160.962 26.8892 161 23.4965 161 21.7231C161.039 20.1424 161 15.8631 160.962 14.2439C160.962 13.8583 160.807 13.4343 160.151 13.4343C159.38 13.4728 157.489 13.5114 156.525 13.3957C155.946 13.3186 155.599 12.9331 155.521 12.4704L155.519 12.4457C155.481 12.1086 155.447 11.8031 155.56 11.3139C155.637 10.9283 155.907 10.4657 156.949 10.3886C158.569 10.2729 161.617 10.2729 162.158 10.2729C162.424 10.2729 162.817 10.2697 163.265 10.2661C164.375 10.2571 165.819 10.2455 166.479 10.2729C166.774 10.2729 167.295 10.2617 167.838 10.2499C168.716 10.2309 169.654 10.2106 169.797 10.2344C170.684 10.3115 171.224 10.9669 171.263 11.7765V12.3162C171.224 13.1258 170.723 13.4343 170.028 13.5114C169.708 13.5571 169.047 13.5621 168.442 13.5667C168.028 13.5699 167.64 13.5728 167.405 13.5885C167.169 13.6032 167.023 13.6067 166.899 13.6096C166.697 13.6144 166.552 13.6179 166.17 13.6656C165.861 13.7041 165.707 14.0125 165.707 14.321V15.3233C165.77 16.1407 165.756 19.3935 165.749 21.0889V21.0936C165.747 21.4751 165.746 21.7773 165.746 21.9544V28.4698C165.746 29.3565 165.476 30.436 164.202 30.5131Z" fill="#EA580C"/>
<path d="M141.725 13.7812C139.989 16.9426 139.256 20.4894 140.452 25.2314C141.417 29.0481 144.388 31.2842 148.709 30.783C151.911 30.3975 152.876 29.1638 153.647 27.9686C154.265 27.0048 153.956 25.7711 153.03 25.1928C152.413 24.7688 151.178 24.8459 150.484 25.6169C150.352 25.757 150.227 25.92 150.099 26.087C149.628 26.7016 149.115 27.3712 148.053 27.159C145.97 26.7349 144.465 24.4218 144.388 20.4123C144.349 18.7931 144.542 16.0944 145.314 14.6679C145.931 13.4728 146.896 12.9331 147.899 13.2029C148.362 13.28 149.21 13.6656 149.905 14.6679C150.407 15.439 151.525 15.6703 152.297 15.092C152.914 14.6294 153.262 13.8198 152.799 12.856C151.873 11.0054 148.979 10.3115 147.05 10.5428C144.619 10.8127 142.999 11.5066 141.725 13.7812Z" fill="#EA580C"/>
<path d="M137.122 25.617C137.199 26.6964 137.161 27.8145 137.083 28.8939C137.045 29.9734 136.582 30.5132 135.772 30.6288C134.498 30.8216 133.765 29.7806 133.688 29.1252C133.537 28.0447 133.518 25.8668 133.501 24.0114C133.492 23.0203 133.484 22.121 133.457 21.5304C133.434 20.8308 133.464 19.9595 133.493 19.1253C133.514 18.5344 133.534 17.9618 133.534 17.4823C133.534 17.2125 133.109 17.1739 132.994 17.4052C132.724 17.9835 132.184 19.1401 131.952 19.6798C131.716 20.1894 131.307 21.1156 130.827 22.204C129.817 24.492 128.491 27.4969 127.785 28.8554C127.168 30.0505 126.01 30.3975 125.277 30.3975C124.043 30.3204 123.811 28.971 123.695 28.0458C123.604 27.1984 123.594 25.9294 123.585 24.7639C123.578 23.9674 123.572 23.2191 123.541 22.6869C123.415 20.2064 123.494 17.4189 123.57 14.762C123.587 14.1567 123.604 13.5582 123.618 12.9717C123.618 12.3669 123.802 11.8409 123.997 11.2853C124.038 11.168 124.079 11.0493 124.12 10.9284C124.313 10.3115 124.891 9.96454 125.509 9.96454C126.203 9.96454 126.898 10.273 127.129 10.9669C127.245 11.3524 127.361 11.8151 127.322 12.2392C127.307 13.0977 127.28 14.0093 127.253 14.9301C127.211 16.366 127.168 17.8247 127.168 19.1401C127.168 19.3911 127.149 19.9165 127.126 20.5398C127.093 21.4484 127.052 22.5649 127.052 23.3423C127.052 23.6893 127.438 23.6508 127.515 23.4966C127.872 22.7548 128.504 21.3278 129.019 20.1643C129.227 19.6951 129.416 19.2686 129.56 18.9473C129.957 18.1011 130.316 17.2472 130.671 16.4029C131.108 15.3623 131.539 14.3362 132.029 13.3572C132.102 13.2115 132.182 13.0437 132.268 12.8632C132.59 12.1835 132.999 11.3224 133.457 10.7742C134.035 10.0031 135.309 9.65612 136.158 10.0802C136.698 10.3501 136.891 10.6199 137.006 11.1597C137.117 11.5207 137.089 12.2416 137.064 12.8617C137.054 13.1025 137.045 13.3281 137.045 13.5114C137.045 14.9186 137.064 16.1523 137.083 17.3859C137.103 18.6196 137.122 19.8533 137.122 21.2605C137.122 21.5555 137.115 21.9674 137.108 22.4274C137.09 23.5302 137.068 24.9097 137.122 25.617Z" fill="#EA580C"/>
<path fill-rule="evenodd" clip-rule="evenodd" d="M119.983 32.0938V29.3565C119.944 28.0843 119.481 27.7759 118.516 27.7373C118.131 27.7373 117.899 27.5831 117.783 26.9663C117.74 26.7626 117.686 26.5041 117.623 26.1976C117.352 24.8797 116.897 22.676 116.24 20.1424C115.468 17.2124 113.771 12.7403 113.424 11.8922C112.845 10.5428 111.61 10.2344 110.723 10.1958C109.681 10.1958 108.639 10.7741 108.099 11.8536C107.713 12.5861 106.479 16.2486 105.476 19.4485C104.858 21.4532 103.817 25.1928 103.315 27.0048C103.161 27.6217 103.045 27.7373 102.428 27.7373C101.772 27.7759 101.231 28.2771 101.154 28.8939C101.068 29.2953 101.046 29.718 101.025 30.1303C101.017 30.2724 101.01 30.4133 101 30.5517C101 30.788 101.01 31.1351 101.02 31.4745C101.029 31.7996 101.039 32.1177 101.039 32.3251C101.039 33.0576 101.424 33.9443 102.505 33.9829C102.738 34.0061 102.802 34.0013 102.901 33.9938C102.966 33.9889 103.046 33.9829 103.199 33.9829C104.241 33.9829 104.781 33.366 104.82 32.4793C104.839 32.4215 104.839 32.3347 104.839 32.1613C104.839 31.9878 104.839 31.7275 104.858 31.3227C104.858 30.8601 105.09 30.5131 105.514 30.4746C106.116 30.4024 109.317 30.4203 111.874 30.4346C113.414 30.4432 114.72 30.4505 115.083 30.436C115.739 30.436 116.047 30.7444 116.086 31.3613C116.111 31.6915 116.103 31.8878 116.095 32.0937C116.09 32.2002 116.086 32.3093 116.086 32.4408C116.086 33.0962 116.665 33.8672 117.475 33.9443C117.748 33.9691 117.925 33.962 118.13 33.9538C118.243 33.9492 118.365 33.9443 118.516 33.9443C119.481 33.9058 119.983 33.1347 119.983 32.0938ZM107.752 27.7373C107.328 27.7373 107.173 27.6217 107.25 27.1205C107.366 26.1181 107.752 24.1519 107.945 23.3809C108.639 20.6822 109.681 16.8655 109.913 16.133C110.105 15.4776 110.684 15.5932 110.877 15.9402C111.109 16.4028 112.073 20.4123 112.305 21.5303C112.691 23.2652 112.961 25.3085 113.154 27.1976C113.192 27.5446 113.038 27.7373 112.768 27.7373H107.752Z" fill="#EA580C"/>
<path fill-rule="evenodd" clip-rule="evenodd" d="M49.624 4C55.5687 4 60.7491 7.27203 63.4627 12.1134C75.1822 13.586 84.2477 23.5875 84.2477 35.7064C84.2477 48.8397 73.6011 59.4862 60.4679 59.4862C58.022 59.4862 55.6623 59.117 53.4416 58.4311C49.2432 62.1584 43.7162 64.422 37.6604 64.422C27.3767 64.422 18.6177 57.8942 15.3009 48.7562C8.05028 45.5042 3 38.2226 3 29.7615C3 18.2699 12.3158 8.95413 23.8073 8.95413C28.1585 8.95413 32.1977 10.2897 35.5374 12.5733C38.1747 7.4804 43.4929 4 49.624 4ZM96.2477 57C96.2477 60.3137 93.5614 63 90.2477 63C86.934 63 84.2477 60.3137 84.2477 57C84.2477 53.6863 86.934 51 90.2477 51C93.5614 51 96.2477 53.6863 96.2477 57ZM102 67C104.209 67 106 65.2091 106 63C106 60.7909 104.209 59 102 59C99.7909 59 98 60.7909 98 63C98 65.2091 99.7909 67 102 67Z" fill="#7BA2C8"/>
<path fill-rule="evenodd" clip-rule="evenodd" d="M32 35.5C32 37.9853 29.9853 40 27.5 40C25.0147 40 23 37.9853 23 35.5C23 33.0147 25.0147 31 27.5 31C29.9853 31 32 33.0147 32 35.5ZM49 35.5C49 37.9853 46.9853 40 44.5 40C42.0147 40 40 37.9853 40 35.5C40 33.0147 42.0147 31 44.5 31C46.9853 31 49 33.0147 49 35.5ZM61.5 40C63.9853 40 66 37.9853 66 35.5C66 33.0147 63.9853 31 61.5 31C59.0147 31 57 33.0147 57 35.5C57 37.9853 59.0147 40 61.5 40Z" fill="white"/>
</svg>
