<svg width="231" height="126" viewBox="0 0 231 126" fill="none" xmlns="http://www.w3.org/2000/svg">
<path d="M214.263 66.4348C200.257 58.7163 183.718 63.1706 173.564 74.5676C172.241 69.246 168.377 65.0982 162.399 64.1013C158.488 63.4468 154.109 64.4051 150.898 66.7579C152.042 50.9038 148.032 35.3453 137.978 22.5124C127.609 9.27626 111.076 0.569094 94.1228 1.01646C77.0489 1.4666 57.7535 10.4195 46.539 23.4016C34.4977 37.3391 35.1646 55.2146 40.4921 71.6873C32.2515 67.266 22.1504 66.1586 13.6672 70.7539C5.06818 75.4098 -0.501869 85.6193 1.35849 95.3896C3.3098 105.629 11.6304 115.922 20.9901 120.324C32.483 125.731 47.3465 123.174 59.6249 123.718C102.777 124.187 145.871 126.244 189.02 123.897C204.438 123.058 221.677 119.523 227.994 103.464C233.539 89.3584 227.399 73.6756 214.263 66.4348ZM220.258 109.487C212.767 117.968 200.811 119.631 190.186 120.246C146.662 122.773 103.16 120.603 59.6277 120.13C49.7168 119.691 39.5964 120.619 29.7599 119.1C19.7802 117.557 12.0659 110.573 7.47149 101.747C2.64007 92.4679 4.33506 81.9878 12.9285 75.5396C22.0953 68.6578 34.3626 71.0714 42.9892 77.5031C44.2101 78.4116 46.1587 76.89 45.6185 75.4761C39.2436 58.7549 36.8293 39.6367 49.6699 25.2794C60.2919 13.3992 78.2643 5.05937 94.1283 4.60648C109.518 4.16739 124.567 11.8804 134.307 23.628C145.81 37.5048 149.561 55.5211 146.579 73.0736C146.199 75.3049 149.484 76.3101 150.033 74.0263C151.394 68.3624 158.538 66.4403 163.513 68.1166C168.49 69.7956 170.571 73.9766 170.508 79.0523C170.483 80.9384 172.881 81.3527 173.843 79.9581C186.016 62.3643 214.55 60.815 224.282 81.9464C228.38 90.8496 226.751 102.133 220.258 109.487Z" fill="white" stroke="white"/>
<path d="M212.346 31.052C212.711 23.1886 218.989 18.2258 226.662 19.7237C230.052 20.3835 231.5 15.1883 228.093 14.5244C218.873 12.7276 210.977 17.1967 208.097 25.1762C203.57 20.4997 198.237 17.3046 191.109 19.0806C187.743 19.9188 189.171 25.1181 192.54 24.2799C199.486 22.5454 203.935 28.1888 207.744 32.9525C209.308 34.9152 212.246 33.16 212.346 31.052Z" fill="white"/>
</svg>
