<svg width="344" height="180" viewBox="0 0 344 180" fill="none" xmlns="http://www.w3.org/2000/svg">
<path d="M250.508 106.912L250.736 107.83L251.366 107.125C266.006 90.7241 289.814 84.3506 309.949 95.4241C328.845 105.82 337.664 128.325 329.696 148.555C320.632 171.55 295.881 176.681 273.447 177.9C227.343 180.403 181.29 179.454 135.193 178.505C118.564 178.162 101.928 177.819 85.2831 177.639C80.8019 177.441 76.0895 177.525 71.2937 177.639C70.7516 177.652 70.2084 177.666 69.6644 177.679C65.3872 177.784 61.0553 177.89 56.7517 177.822C47.046 177.671 37.5484 176.638 29.2879 172.759L29.0754 173.212L29.2878 172.759C15.8115 166.434 3.81908 151.622 1.01256 136.924C-1.6477 122.98 6.32323 108.363 18.662 101.695L18.6621 101.695C30.8171 95.1243 45.3269 96.6912 57.2049 103.051L58.2993 103.637L57.9166 102.456C50.1908 78.6156 49.2677 52.8839 66.6141 32.8457L66.236 32.5184L66.6141 32.8456C82.8314 14.1094 110.763 1.17353 135.459 0.523728L135.446 0.0239008L135.459 0.523727C159.942 -0.121068 183.845 12.4329 198.839 31.5363C213.378 50.0559 219.182 72.5142 217.527 95.419L217.449 96.4961L218.321 95.8586C222.877 92.5267 229.109 91.1628 234.671 92.0918L234.672 92.0919C243.151 93.5031 248.627 99.3616 250.508 106.912ZM85.2513 173.431L85.2596 173.431L85.2679 173.431C102.073 173.613 118.88 173.969 135.688 174.325C182.182 175.309 228.685 176.294 275.198 173.599C290.643 172.705 308.236 170.295 319.283 157.813L318.908 157.482L319.283 157.813C328.859 146.989 331.259 130.397 325.215 117.293C318.047 101.759 303.942 94.5601 289.414 94.4795C274.901 94.3989 259.94 101.418 250.987 114.332L250.987 114.332C250.417 115.157 249.413 115.457 248.546 115.258C247.706 115.065 247.033 114.415 247.047 113.308V113.308C247.094 109.557 246.348 106.1 244.638 103.258C242.924 100.408 240.259 98.208 236.533 96.9534L236.533 96.9534C232.802 95.6988 228.277 95.7925 224.422 97.2534C220.561 98.7168 217.319 101.577 216.281 105.889L216.767 106.006L216.281 105.889C216.112 106.589 215.75 106.991 215.342 107.198C214.922 107.41 214.4 107.441 213.888 107.292C212.857 106.993 212.011 106.028 212.237 104.707L212.237 104.707C216.595 79.105 211.116 52.7992 194.278 32.5277C180.025 15.3714 157.997 4.09313 135.44 4.73541C112.229 5.39674 85.9586 17.563 70.4175 34.9107C51.5442 55.9716 55.1411 83.9721 64.4301 108.289L64.4302 108.289C64.718 109.041 64.3632 109.891 63.6396 110.45C62.9169 111.01 62.0187 111.132 61.3713 110.652C48.7209 101.239 30.6249 97.6317 17.0501 107.803C4.33387 117.326 1.84148 132.814 8.9694 146.476C15.7039 159.388 27.0411 169.659 41.7548 171.93L41.7549 171.93C48.9466 173.038 56.2338 173.253 63.5103 173.271C65.5779 173.277 67.643 173.266 69.7048 173.256C74.9117 173.229 80.098 173.203 85.2513 173.431Z" fill="#BDD1E4" stroke="#BDD1E4"/>
<path d="M261.293 45.6478L261.293 45.6474C261.167 42.5675 262.695 39.9548 264.941 38.6411C267.204 37.318 270.157 37.3377 272.78 39.4402L272.78 39.4403C273.829 40.2812 275.118 39.9855 275.908 39.2001C276.3 38.8108 276.528 38.3363 276.543 37.8833C276.558 37.4496 276.381 36.9725 275.838 36.5361C269.5 31.4509 261.166 33.5288 258.208 39.8187L257.9 40.4737L257.397 39.9538C255.331 37.8212 252.953 36.1352 250.422 35.47C247.916 34.8111 245.221 35.1416 242.452 37.1147L261.293 45.6478ZM261.293 45.6478C261.337 46.7153 260.663 47.381 259.792 47.5867C258.899 47.7975 257.892 47.4985 257.363 46.6723L261.293 45.6478ZM252.134 40.7584C254.29 42.2144 256.072 44.653 257.363 46.6722L252.134 40.7584ZM252.134 40.7584C251.048 40.0255 249.844 39.5255 248.544 39.4718M252.134 40.7584L248.544 39.4718M248.544 39.4718C247.236 39.4179 245.878 39.8174 244.497 40.8022M248.544 39.4718L244.497 40.8022M244.497 40.8022C243.93 41.2069 243.414 41.2519 242.989 41.1216C242.547 40.9859 242.143 40.6404 241.866 40.163C241.308 39.2004 241.358 37.895 242.452 37.1148L244.497 40.8022Z" fill="#BDD1E4" stroke="#BDD1E4"/>
<path d="M340.807 71.125L340.807 71.125C342.149 71.1909 342.842 72.248 342.842 73.3529C342.843 73.9026 342.666 74.4176 342.343 74.7783C342.031 75.1272 341.552 75.3676 340.856 75.3335C335.525 75.0687 331.252 78.4071 330.172 83.641C329.98 84.5721 329.112 85.1018 328.136 85.1061C327.163 85.1104 326.31 84.5926 326.13 83.6485L326.13 83.6485C325.364 79.625 322.636 76.4417 318.319 75.9217C316.984 75.7608 316.283 74.6299 316.28 73.514C316.279 72.9611 316.453 72.4681 316.76 72.1423C317.053 71.8312 317.51 71.6241 318.199 71.7072L318.199 71.7073C322.148 72.1815 325.537 74.0706 327.746 76.9922L328.153 77.5307L328.549 76.9844C331.306 73.1852 335.849 70.8809 340.807 71.125Z" fill="#BDD1E4" stroke="#BDD1E4"/>
</svg>
