<svg width="298" height="156" viewBox="0 0 298 156" fill="none" xmlns="http://www.w3.org/2000/svg">
<path d="M268.831 82.3212C251.175 72.6108 230.326 78.2147 217.527 92.5527C215.86 85.8579 210.989 80.6397 203.453 79.3855C198.523 78.5621 193.003 79.7676 188.955 82.7277C190.397 62.7823 185.342 43.2086 172.668 27.0639C159.598 10.4121 138.757 -0.542107 117.387 0.020714C95.864 0.58701 71.5411 11.8504 57.4046 28.1826C42.2258 45.7169 43.0665 68.2055 49.7822 88.9291C39.3943 83.3669 26.6613 81.9738 15.9677 87.7548C5.12818 93.6124 -1.89319 106.457 0.451896 118.748C2.91163 131.631 13.4003 144.579 25.1987 150.117C39.6861 156.919 58.4225 153.702 73.9001 154.387C128.296 154.977 182.618 157.566 237.011 154.612C256.445 153.556 278.176 149.109 286.139 128.907C293.129 111.161 285.389 91.4306 268.831 82.3212ZM276.387 136.484C266.944 147.153 251.873 149.245 238.48 150.02C183.616 153.198 128.779 150.468 73.9036 149.874C61.4103 149.321 48.653 150.489 36.2536 148.578C23.6735 146.636 13.9492 137.849 8.15769 126.746C2.0674 115.073 4.20404 101.888 15.0366 93.7757C26.5918 85.1179 42.0555 88.1544 52.9298 96.2458C54.4689 97.3888 56.9251 95.4745 56.2442 93.6957C48.2083 72.6594 45.1649 48.6075 61.3513 30.5451C74.7409 15.5991 97.3961 5.10695 117.394 4.53718C136.794 3.98478 155.763 13.6882 168.041 28.4675C182.542 45.9254 187.27 68.5911 183.511 90.6732C183.032 93.4803 187.173 94.7449 187.864 91.8718C189.581 84.7462 198.586 82.3281 204.857 84.437C211.131 86.5493 213.754 91.8092 213.674 98.1948C213.643 100.568 216.666 101.089 217.878 99.3344C233.224 77.2002 269.192 75.2512 281.46 101.836C286.626 113.037 284.572 127.232 276.387 136.484Z" fill="white"/>
<path d="M212.149 35.7148C216.666 32.4942 220.453 37.1948 222.683 40.6829C223.833 42.4791 226.984 41.8815 226.887 39.5434C226.682 34.5162 231.869 31.0976 236.139 34.5197C238.383 36.3193 241.597 33.1474 239.331 31.3269C233.637 26.7583 226.081 28.5996 223.388 34.3251C219.747 30.566 214.88 28.2453 209.874 31.8133C207.525 33.4878 209.78 37.4033 212.149 35.7148Z" fill="white"/>
<path d="M295.388 61.2088C290.941 60.99 286.865 63.0571 284.392 66.4653C282.401 63.8319 279.354 62.1399 275.824 61.7161C272.948 61.3687 272.972 65.8851 275.824 66.2291C279.344 66.6529 281.585 69.2377 282.22 72.5764C282.634 74.7478 286.132 74.7131 286.574 72.5764C287.466 68.2476 290.982 65.503 295.388 65.7218C298.292 65.8643 298.285 61.3513 295.388 61.2088Z" fill="white"/>
</svg>
