<svg width="231" height="126" viewBox="0 0 231 126" fill="none" xmlns="http://www.w3.org/2000/svg">
<path d="M16.7366 66.4348C30.7431 58.7163 47.2824 63.1706 57.4358 74.5676C58.7587 69.246 62.6227 65.0982 68.6007 64.1013C72.5116 63.4468 76.891 64.4051 80.1018 66.7579C78.9581 50.9038 82.9682 35.3453 93.0224 22.5124C103.391 9.27626 119.924 0.569094 136.877 1.01646C153.951 1.4666 173.246 10.4195 184.461 23.4016C196.502 37.3391 195.835 55.2146 190.508 71.6873C198.749 67.266 208.85 66.1586 217.333 70.7539C225.932 75.4098 231.502 85.6193 229.642 95.3896C227.69 105.629 219.37 115.922 210.01 120.324C198.517 125.731 183.653 123.174 171.375 123.718C128.223 124.187 85.1289 126.244 41.9796 123.897C26.5621 123.058 9.32278 119.523 3.00584 103.464C-2.5394 89.3584 3.60114 73.6756 16.7366 66.4348ZM10.7422 109.487C18.2332 117.968 30.1891 119.631 40.8138 120.246C84.3379 122.773 127.84 120.603 171.372 120.13C181.283 119.691 191.404 120.619 201.24 119.1C211.22 117.557 218.934 110.573 223.529 101.747C228.36 92.4679 226.665 81.9878 218.071 75.5396C208.905 68.6578 196.637 71.0714 188.011 77.5031C186.79 78.4116 184.841 76.89 185.382 75.4761C191.756 58.7549 194.171 39.6367 181.33 25.2794C170.708 13.3992 152.736 5.05937 136.872 4.60648C121.482 4.16739 106.433 11.8804 96.6935 23.628C85.1895 37.5048 81.4385 55.5211 84.4206 73.0736C84.8009 75.3049 81.5157 76.3101 80.9672 74.0263C79.6057 68.3624 72.4619 66.4403 67.4872 68.1166C62.5097 69.7956 60.4289 73.9766 60.4923 79.0523C60.5171 80.9384 58.1193 81.3527 57.1574 79.9581C44.9838 62.3643 16.45 60.815 6.71829 81.9464C2.62 90.8496 4.24884 102.133 10.7422 109.487Z" fill="#BDD1E4" stroke="#BDD1E4"/>
<path d="M23.2624 25.524L22.7049 26.0998L22.4329 25.3459C19.6424 17.614 11.9972 13.2623 3.00218 15.0151C2.29008 15.1539 1.87719 15.5136 1.66179 15.9365C1.43848 16.375 1.40211 16.9339 1.55532 17.4869C1.86377 18.6003 2.86551 19.5009 4.24261 19.2329C8.21001 18.4584 11.8486 19.351 14.5465 21.4852C17.2442 23.6192 18.9648 26.9656 19.1535 31.0288C19.1932 31.8648 19.8122 32.6853 20.6238 33.0788C21.409 33.4595 22.2623 33.3968 22.8649 32.6408L22.8654 32.6402C22.9007 32.596 22.9361 32.5517 22.9716 32.5073C24.8382 30.1726 26.913 27.5775 29.387 25.7752C31.9319 23.9214 34.9303 22.8832 38.5809 23.7948C39.2858 23.97 39.859 23.8275 40.2944 23.5273C40.7404 23.2199 41.0674 22.7279 41.219 22.1763C41.3708 21.6244 41.3372 21.0491 41.1112 20.5823C40.8917 20.129 40.4738 19.7409 39.7706 19.5657L39.7705 19.5657C32.8922 17.8521 27.7335 20.9054 23.2624 25.524Z" fill="#BDD1E4" stroke="#BDD1E4"/>
</svg>
