<svg width="120" height="112" viewBox="0 0 120 112" fill="none" xmlns="http://www.w3.org/2000/svg">
<path d="M118.474 44.5216C117.551 43.2905 116.165 43.1366 114.78 42.8288C112.626 42.521 108.625 43.5983 106.47 43.4444C103.7 43.4444 100.93 43.2905 98.1598 43.5983H98.0059C98.0059 42.521 98.0059 41.4437 98.0059 40.3665C98.4676 28.3627 100.93 16.0511 100.007 4.04732C101.853 3.43174 101.699 0.199951 99.391 0.199951C82.3086 0.199951 65.2263 0.50774 48.144 1.12332C40.911 1.43111 33.524 0.661635 26.1371 0.81553C18.7501 0.969424 11.2093 2.50837 3.82233 2.50837C3.20675 2.04669 2.43728 1.89279 1.8217 2.50837C1.6678 2.50837 1.6678 2.50837 1.51391 2.50837C-0.178932 2.66227 -0.640616 5.12458 1.05223 5.58627C1.05223 5.58627 1.05223 5.58627 1.20612 5.58627C0.744437 15.8972 1.51391 26.2082 1.51391 36.5191C1.51391 46.984 -0.486721 57.9105 0.898332 68.0675C1.05223 68.837 1.36002 69.7604 2.28338 69.9143C4.7457 70.2221 15.8261 69.7604 15.6722 69.4526C16.1339 70.376 13.9794 78.2246 13.8255 79.148C13.2099 82.3797 12.2865 85.4576 11.9788 88.8433C11.8249 90.0745 13.3638 90.9978 14.4411 90.6901C18.5962 89.4589 21.5202 85.4576 24.4442 82.5336C28.4455 78.5324 33.2162 75.3006 36.6019 70.9915C39.372 71.2993 42.1421 71.6071 45.0661 71.761C44.9122 75.7623 44.6044 79.7635 44.9122 83.6109C44.9122 83.3031 45.22 91.1517 45.5278 91.7673C48.6057 95.9225 54.6076 93.9219 59.3783 93.6141C68.4581 93.1524 83.5398 90.3823 90.0034 97.6153C94.3124 102.386 95.8514 108.85 102.315 111.466C103.238 111.774 104.623 111.004 104.777 110.081C105.393 106.387 105.547 105.926 105.701 102.232C105.701 102.848 105.239 95.3069 105.547 94.9991C107.701 91.6134 112.78 94.2296 115.242 91.9212C117.089 90.2284 116.781 88.8433 117.089 86.5349C117.858 80.9947 117.089 74.9928 117.858 69.2987C118.628 64.3741 121.86 48.9846 118.474 44.5216ZM34.2935 67.9136C31.6773 71.6071 27.0604 74.3772 23.9825 77.609C21.9819 79.6096 19.3657 83.1492 16.5956 85.3037C17.2112 81.4564 18.1345 77.609 18.904 73.9155C19.2118 72.2227 20.7508 68.6831 19.8274 66.8364C17.2112 61.4501 9.97812 68.6831 5.97686 66.0669C1.97559 63.4507 5.51517 42.521 5.51517 36.673C5.51517 26.516 5.20738 16.5128 4.5918 6.35574C10.7476 6.97132 17.3651 5.27848 23.5209 4.97069C31.2156 4.6629 39.0642 5.27848 46.759 5.27848C63.0718 5.27848 79.3846 4.509 95.6975 4.509C95.8514 4.6629 95.8514 4.97069 96.1592 5.12458C96.6209 14.2044 95.2358 23.4381 94.7741 32.5178C94.3124 42.8288 95.6975 54.3709 94.1585 64.528C93.3891 69.4526 90.3112 68.3753 85.2326 68.5292C79.8463 68.6831 74.46 68.6831 69.2276 68.3753C59.0705 67.6059 48.4518 67.2981 38.1409 68.3753C37.2175 66.9903 35.3708 66.5286 34.2935 67.9136ZM113.241 74.2233C112.934 78.8402 114.934 84.8421 111.241 87.6122C108.779 89.4589 106.008 88.0739 103.7 89.9206C100.622 92.229 101.853 96.9997 101.853 100.232C101.853 102.694 102.161 105.31 101.084 105.464C100.16 105.618 96.7747 100.385 96.1592 99.616C94.4663 97.3075 93.543 93.9219 91.6962 91.9212C88.1566 88.0739 82.3086 89.9206 77.384 89.9206C73.075 89.9206 68.7659 89.7667 64.4569 89.9206C61.379 90.0745 53.6842 92.0751 50.9141 90.6901C46.6051 88.6894 47.9901 77.4551 48.144 71.761C57.2238 72.2227 66.4575 72.0688 75.3834 72.0688C80.7697 72.0688 92.9274 74.3772 96.9286 69.6065C98.9293 67.2981 98.0059 62.0656 98.0059 59.4494C98.0059 55.6021 97.852 51.7547 97.852 47.9073C98.7754 48.0612 99.6988 47.5995 99.8527 46.5223C99.5449 47.7534 110.01 47.2917 110.317 47.2917C113.549 47.5995 114.165 46.8301 115.242 50.0619C117.243 56.6793 113.703 67.6059 113.241 74.2233Z" fill="#7BA2C8"/>
<path d="M13.825 19.1288C37.3709 22.6684 62.3019 17.5898 86.0017 18.2054C88.6179 18.2054 88.6179 14.358 86.0017 14.2042C74.7673 13.8964 63.8408 15.5892 52.6065 15.5892C39.5255 15.5892 26.7522 15.4353 13.825 17.282C13.0556 17.5898 13.0556 19.1288 13.825 19.1288Z" fill="#2B5278"/>
<path d="M11.3632 32.5177C35.3708 36.3651 59.8401 34.8261 83.8477 31.4404C86.0022 31.1326 85.5405 27.2853 83.386 27.5931C71.3822 29.132 58.7628 30.5171 46.6051 30.9788C39.8338 31.2865 32.9085 31.2865 26.291 30.671C21.0586 30.2093 16.7496 28.8242 12.7483 32.056C13.0561 31.9021 13.0561 31.2865 12.7483 31.1327C12.5944 31.1327 12.5944 30.9788 12.4405 30.9788C10.9016 29.9015 10.1321 32.3638 11.3632 32.5177Z" fill="#2B5278"/>
<path d="M51.6834 45.5987C57.3775 45.5987 62.9177 45.5987 68.4579 44.9831C73.9981 44.3675 79.5383 42.6747 85.2324 42.9825C87.6947 42.9825 87.6947 39.289 85.2324 39.1351C79.6922 38.9812 74.9215 40.674 69.5352 41.1357C63.6872 41.7513 57.5314 41.7513 51.5295 41.7513C37.9867 41.7513 23.6745 40.5202 10.4396 42.9825C9.82401 43.1364 9.82401 44.2136 10.4396 44.3675C23.8284 46.8298 38.1406 45.5987 51.6834 45.5987Z" fill="#2B5278"/>
<path d="M56.7619 55.1401C48.1438 55.6018 39.6796 56.5252 31.0615 56.5252C24.444 56.5252 17.6727 54.9862 11.2091 56.0635C9.97794 56.2174 10.4396 57.9102 11.5169 57.9102C18.596 58.6797 25.3674 59.9109 32.6005 60.0648C40.7569 60.0648 48.7594 59.2953 56.7619 58.8336C59.0704 58.5258 59.0704 54.9862 56.7619 55.1401Z" fill="#2B5278"/>
</svg>
