<svg width="119" height="121" viewBox="0 0 119 121" fill="none" xmlns="http://www.w3.org/2000/svg">
<path d="M65.6481 50.3584C69.5841 52.4119 70.782 56.3479 72.6644 59.9415C73.1777 60.9683 74.889 60.4549 74.7179 59.4282C73.8623 46.4225 57.6052 40.7753 48.7065 50.5295C40.4924 59.5993 45.9685 77.0543 59.1453 76.8832C61.37 76.8832 61.37 73.2895 59.1453 73.4606C48.3643 73.6317 44.9417 58.4014 52.3002 51.8986C56.065 48.6471 61.37 48.1338 65.6481 50.3584Z" fill="#7BA2C8"/>
<path d="M83.4456 61.6529C83.7878 62.8508 85.6702 62.6797 85.6702 61.3106C86.1836 50.8719 80.5364 42.8289 71.6378 37.6951C62.3969 32.219 49.9046 36.326 42.2039 43.1711C24.2355 59.4282 38.7813 85.4396 60.3434 86.8086C62.568 86.9797 62.568 83.5572 60.3434 83.3861C40.4926 82.1882 28.5137 57.3747 46.3109 44.369C55.7229 37.5239 66.1617 36.326 75.0603 44.7113C80.7075 50.0162 81.392 54.9789 83.4456 61.6529Z" fill="#7BA2C8"/>
<path d="M95.254 63.7062C97.6498 47.6203 87.3821 33.2456 72.494 27.7695C54.6968 21.4378 39.8087 29.3096 29.0277 43.6843C11.5727 67.1288 38.4397 102.381 65.4778 96.2204C67.7025 95.707 66.6757 92.4556 64.6222 92.7979C40.6644 98.274 17.0488 66.7865 31.9369 45.909C40.6644 33.7589 53.1566 26.0582 68.2159 29.9941C84.3018 34.1012 92.1737 47.4491 93.0293 63.1929C93.0293 64.5619 95.0828 65.0753 95.254 63.7062Z" fill="#7BA2C8"/>
<path d="M107.574 65.5887C110.655 44.8823 97.4777 20.7534 76.7713 14.9351C64.9635 11.6836 49.2198 9.28786 37.7543 14.4217C31.7648 17.1597 27.4866 21.9513 23.2085 26.7428C17.9035 32.5612 13.9676 37.3527 12.4274 45.2246C10.2028 56.1767 8.66263 69.0113 13.1119 79.7923C21.1549 99.8142 48.5353 110.938 68.8995 108.199C71.1241 107.857 70.0973 104.606 68.0438 104.948C48.8776 107.515 21.1549 96.0494 15.1655 76.0275C12.2563 65.931 13.6253 53.6098 16.1922 43.6844C17.7324 37.695 22.1817 33.2457 26.1176 28.7964C29.1979 25.3738 32.4493 21.4379 36.5564 19.0421C46.824 12.8815 60.5142 15.4484 71.6375 17.6731C94.9108 22.1224 104.323 44.1978 105.35 65.5887C105.521 66.6155 107.403 66.9578 107.574 65.5887Z" fill="#7BA2C8"/>
<path d="M94.2267 104.948C69.7555 122.232 35.3589 121.376 15.8504 97.2474C-3.82927 73.4607 1.81793 39.5775 21.6687 17.5021C33.3054 4.49639 49.0491 2.44286 65.8196 4.15413C72.3224 4.83864 80.0231 5.52315 85.8415 8.60344C89.9485 10.657 93.5422 14.4218 96.9647 17.5021C103.468 23.3204 110.313 28.9676 113.222 37.3528C118.698 53.0965 114.933 75.0009 108.43 89.8889C107.917 91.0868 109.628 92.2847 110.313 91.0868C117.329 79.279 119.725 60.7973 118.527 47.2782C117.671 38.0373 114.42 29.8232 107.917 23.3204C102.27 17.6732 96.1091 11.8549 89.6063 7.23442C80.7076 0.902709 67.0175 0.560454 56.4076 0.2182C28.8561 -0.46631 12.4278 18.1866 3.52921 42.6578C-4.68491 65.4177 1.64681 90.4023 19.9574 106.488C41.3484 125.312 73.178 123.772 95.7669 107.857C97.6493 106.659 95.938 103.75 94.2267 104.948Z" fill="#7BA2C8"/>
<path d="M110.997 97.0761C103.81 91.9423 97.3068 86.2951 90.9751 80.3056C96.1089 78.7655 102.098 77.2253 104.494 72.2626C104.836 71.407 104.665 70.038 103.467 69.6957C90.6328 66.7866 77.6271 64.0485 64.7926 61.1394C64.4503 59.0858 63.0813 57.2034 61.1989 56.5189C59.4876 55.8344 57.6053 56.3478 56.2362 57.7168C55.3806 58.5724 55.0383 59.9415 55.3806 61.1394C54.8672 62.5084 54.8672 64.2196 55.5517 65.4175C56.7496 67.4711 59.4877 67.9844 61.7123 67.2999C63.937 79.45 67.3595 91.6 70.7821 103.579C71.1243 104.948 73.1778 105.29 73.8623 103.921C75.9159 99.9853 77.456 96.0493 78.6539 91.7712C81.7342 93.9958 84.8145 96.0493 87.8948 98.274C91.4885 100.67 97.649 103.237 98.8469 107.686C99.1892 109.055 100.729 109.226 101.756 108.371C105.008 105.632 108.259 102.894 111.51 100.156C112.195 98.9585 111.853 97.5895 110.997 97.0761Z" fill="#2B5278"/>
</svg>
