<svg width="90" height="121" viewBox="0 0 90 121" fill="none" xmlns="http://www.w3.org/2000/svg">
<path d="M53.4535 1.69044C31.4933 -4.16561 9.38669 7.6929 2.65223 29.2139C-4.37503 51.7597 2.94504 80.3079 19.4884 96.9977C19.7812 97.2905 20.2204 97.4369 20.5132 97.2905C27.2477 105.782 35.4461 112.516 43.6446 119.69C44.2302 120.129 45.1086 120.422 45.6942 119.983C56.3815 111.784 64.4336 101.39 71.4608 89.9704C78.1953 78.6975 87.4186 65.2286 89.1754 52.0525C92.1034 30.2387 73.9497 7.25369 53.4535 1.69044ZM77.9025 71.0847C71.9 82.504 65.7512 93.9233 57.5527 103.879C55.9423 105.782 47.0118 116.762 45.6942 116.908C44.3766 116.908 41.1558 112.955 40.131 112.077C33.9821 106.66 27.8333 101.536 21.538 96.4121C21.538 96.1193 21.538 95.6801 21.2452 95.3873C4.99466 76.0623 -4.08222 42.39 10.9971 19.8442C28.4189 -6.36163 66.044 2.42245 79.9521 27.0179C88.5898 42.5364 85.9546 55.7125 77.9025 71.0847Z" fill="#7BA2C8"/>
<path d="M45.9869 12.9632C43.9372 12.3776 43.0588 15.5984 45.1084 16.184C47.0117 16.7696 48.7685 17.5016 50.5253 18.0872C50.5253 18.2336 50.5253 18.38 50.5253 18.38C50.5253 18.5264 50.5253 18.6728 50.5253 18.8192C50.5253 18.9656 50.5253 18.9656 50.6717 18.9656C49.9397 20.8688 50.8181 25.5537 50.9645 23.6505C50.6717 28.1889 48.6221 32.1417 45.4012 35.3626C44.3764 36.3874 44.962 37.705 46.1333 38.1442C50.3789 42.6826 50.5253 45.1714 46.5725 45.7571C45.694 46.0499 44.962 46.3427 44.23 46.6355C42.766 47.3675 41.7412 47.9531 40.7164 49.4171C39.106 51.6131 38.9596 54.2483 39.2524 56.8836C39.9844 63.3252 43.498 70.9381 50.3789 71.8165C35.5924 75.7693 20.9522 64.35 18.317 49.5635C17.4386 44.4394 18.317 40.1938 20.2202 36.3874C22.1234 39.3154 24.4659 43.7074 27.2475 45.4643C29.1507 46.6355 33.9819 46.6355 35.8852 45.7571C38.2276 44.4394 38.9596 40.4866 39.106 38.2906C39.6916 32.7273 39.838 26.5785 39.2524 21.0152C41.5948 19.9904 43.7908 19.112 45.9869 18.38C47.0117 17.9408 46.5725 16.4768 45.5476 16.7696C30.0291 19.5512 12.0218 31.7025 14.8034 49.7099C17.1458 65.2284 32.2251 78.5509 48.0365 75.7693C62.823 73.1341 74.5351 60.3972 74.3887 45.1715C74.3887 27.6033 61.6518 17.5016 45.9869 12.9632ZM37.0564 22.1864C36.4708 27.7497 37.2028 33.7521 35.7388 39.169C35.0068 41.6578 31.7859 44.1466 29.0043 42.3898C26.6619 40.9258 24.3195 35.9482 22.7091 33.7521C22.5626 33.6057 22.4162 33.4593 22.2698 33.3129C25.9299 28.6281 31.3467 24.9681 37.0564 22.1864ZM51.9893 71.5237C52.7213 70.6453 52.2821 68.7421 50.6717 68.5957C47.0117 68.1565 43.498 62.0076 43.0588 58.494C41.7412 47.3675 46.7189 50.5883 51.2573 47.9531C52.8677 47.0747 54.0389 46.1963 54.6245 44.293C55.7957 40.1938 52.5749 37.705 49.3541 36.0946C52.7213 31.9953 54.6245 26.8713 53.8925 21.4544C53.7461 20.8688 53.7461 20.1368 53.4533 19.4048C61.9446 23.5041 68.3862 29.3601 70.7287 39.901C73.8031 53.9555 65.3118 67.278 51.9893 71.5237Z" fill="#2B5278"/>
</svg>
