<svg width="120" height="110" viewBox="0 0 120 110" fill="none" xmlns="http://www.w3.org/2000/svg">
<path d="M97.4127 53.1436C97.4127 52.9898 97.4127 52.9898 97.4127 52.8359C103.106 49.2967 108.646 45.6036 113.724 41.7566C116.648 39.4484 121.11 35.2937 118.032 31.139C114.647 26.5226 103.26 29.2925 98.4899 29.7541C99.2592 22.5218 100.029 15.2895 100.029 7.90334C100.029 -2.5604 88.4877 0.671048 80.4861 0.671048C62.4823 0.671048 44.6324 1.7482 26.7824 3.74862C26.1669 3.74862 25.7053 4.21026 25.3975 4.67189C23.7049 5.59516 22.4738 6.98007 21.7045 9.59601C20.1657 14.9818 21.0889 21.9063 20.9351 27.4459C20.9351 27.9076 20.9351 28.5231 20.9351 28.9847C15.0877 28.0614 4.93169 25.7533 1.85412 30.8312C-1.83897 36.8325 6.00884 42.8338 9.8558 46.0652C13.2411 48.9889 16.9342 51.6049 20.6273 54.0669C20.6273 55.6057 20.6273 57.2984 20.6273 58.8371C19.8579 58.3755 18.7808 58.5294 18.0114 59.4527C13.395 66.0694 1.85412 68.0699 0.161451 76.9948C-0.607942 80.9957 1.2386 85.3043 5.23944 86.6892C9.24029 88.0741 15.2415 86.843 20.6273 85.4581C20.7812 90.5361 20.9351 95.6141 21.2428 100.846C21.8583 111.002 30.7833 108.386 39.4005 108.54C54.3267 108.848 69.4068 109.155 84.333 109.463C94.1813 109.617 98.0282 110.233 98.9515 100.077C99.567 93.9215 99.567 87.6124 99.2592 81.4573C104.799 82.6883 110.954 83.7655 115.57 81.6112C129.573 74.3789 106.645 59.2988 97.4127 53.1436ZM93.7196 55.7596C94.0274 62.2225 95.1045 69.3009 95.72 76.3793C94.0274 76.0715 92.3347 75.7638 90.7959 75.456C90.7959 69.3009 90.4882 63.1457 90.4882 56.9906C91.5653 56.3751 92.6425 55.7596 93.7196 55.1441C93.7196 55.1441 93.8735 55.1441 93.8735 55.2979C93.7196 55.4518 93.7196 55.6057 93.7196 55.7596ZM86.6412 85.4581C85.4102 87.9202 86.949 84.9965 84.9485 85.1504C72.6383 85.9198 60.0202 84.0732 47.556 84.5349C44.7862 84.6887 41.4009 85.4581 38.6311 84.9965C35.8613 86.2275 34.3225 85.4581 33.8609 82.8422C33.707 82.5344 33.3992 82.2267 33.2453 81.9189C41.247 79.6107 48.941 76.8409 56.481 73.6095C57.712 73.1479 58.9431 72.5323 60.1741 71.9168C60.7896 72.0707 61.2512 72.2246 61.8667 72.3785C70.0223 74.8405 78.3318 76.6871 86.6412 78.3797C86.6412 79.7646 86.6412 81.1495 86.6412 82.5344C86.6412 83.15 86.949 84.8426 86.6412 85.4581ZM32.1682 76.6871C31.091 71.3013 31.091 65.4539 30.7833 60.0682C38.4772 64.069 46.6328 67.4543 54.9422 70.2242C47.556 73.3017 40.016 76.0715 32.3221 78.2259C32.1682 77.7642 32.1682 77.1487 32.1682 76.6871ZM30.6294 20.8291C42.1703 20.983 53.5573 20.5214 65.0982 20.2136C70.3301 20.0597 78.024 18.521 82.9481 19.9059C87.7183 21.2908 86.4873 24.83 86.4873 28.6769C86.3334 37.1403 86.4873 45.6036 86.4873 54.0669C77.8701 58.991 69.099 63.7613 60.0202 67.916C49.8642 64.6845 39.8621 60.8376 30.6294 55.7596C30.0139 44.0648 30.1678 32.5239 30.6294 20.8291ZM65.5598 69.4548C72.4844 66.2233 79.5628 62.838 86.4873 59.1449C86.4873 64.2229 86.6412 69.4548 86.6412 74.5328C79.5628 73.1479 72.6383 71.4552 65.5598 69.4548ZM108.184 32.8317C110.8 31.7545 113.724 31.6006 115.263 34.6782C117.263 37.448 113.262 39.4484 108.954 40.3717C105.107 42.9877 101.26 45.2958 97.2588 47.7579C97.2588 42.9877 97.5666 38.0635 98.0282 33.2933C101.106 33.1394 105.261 32.5239 108.184 32.8317ZM31.2449 6.98007C31.3988 6.98007 31.5527 6.98007 31.7066 6.98007C32.7837 6.82619 34.1686 6.98007 35.5535 7.28783C36.3229 7.44171 36.7845 6.98007 37.0923 6.51844C47.4022 5.59516 57.5582 4.97965 67.868 4.67189C74.4848 4.51801 80.9477 4.36413 87.5645 4.51801C90.1804 4.51801 94.489 3.59474 96.1817 6.21068C96.9511 7.44171 95.5662 15.1356 95.4123 16.6744C94.1812 27.9076 93.258 38.8329 93.4119 50.0661C93.258 50.0661 93.258 50.2199 93.1041 50.2199C92.1808 50.8355 91.1037 51.2971 90.1804 51.9126C90.642 40.9872 92.1808 28.5231 89.8727 18.2132C89.7188 17.5977 89.1033 17.1361 88.4877 16.8283C80.3322 14.3662 70.0223 16.2128 61.559 16.5205C51.2491 16.8283 40.7854 17.1361 30.4755 16.9822C29.5523 16.9822 29.0906 17.4438 28.7829 18.0593C28.0135 18.0593 27.2441 18.6748 27.0902 19.5981C26.3208 30.8312 26.1669 42.0644 26.6286 53.4514C26.4747 53.4514 26.3208 53.2975 26.3208 53.2975C25.5514 52.8359 24.782 52.3742 24.1665 51.9126C24.1665 51.1432 24.1665 50.5277 24.1665 49.7583C24.1665 43.757 24.3204 37.7558 24.4743 31.6006C24.6281 31.139 24.6281 30.6774 24.4743 30.0619C24.4743 29.1386 24.4743 28.0614 24.4743 27.1382C24.782 20.5214 23.2432 8.2111 31.2449 6.98007ZM9.8558 31.9084C12.4717 30.9851 17.0881 31.9084 20.6273 32.37C20.4734 38.0635 20.3195 43.757 20.3195 49.4506C17.0881 47.2963 14.0105 44.8342 11.0868 42.3721C7.7015 39.4484 4.16229 33.9088 9.8558 31.9084ZM26.9363 57.9139C27.2441 64.9923 27.8596 72.0707 28.629 79.1491C27.2441 79.4569 25.7053 79.9185 24.3204 80.2263C24.1665 72.2246 24.1665 64.3768 24.1665 56.3751C25.0898 56.8367 26.0131 57.4522 26.9363 57.9139ZM9.39417 82.8422C6.00884 83.7655 4.47005 80.8418 4.47005 77.7642C3.54678 73.7634 8.62477 70.378 11.8562 69.3009C14.7799 66.5311 17.8575 65.3 20.3195 62.2225C20.3195 68.5315 20.3195 74.8405 20.4734 81.1495C16.9342 81.9189 10.933 83.3038 9.39417 82.8422ZM95.1045 97.9223C92.9502 108.386 85.2563 105.462 76.9468 105.308C70.3301 105.155 63.7133 105.001 57.0965 104.847C50.4797 104.693 43.863 104.539 37.2462 104.385C34.4764 104.385 26.7824 105.155 24.782 102.385C23.8588 101.154 24.4743 92.6904 24.4743 91.1516C24.4743 88.8435 24.3204 86.5353 24.3204 84.2271C25.5514 83.9193 26.7824 83.6116 27.7057 83.3038C28.1674 83.15 28.629 82.9961 29.0906 82.9961C29.2445 84.6887 29.5523 86.2275 29.7061 87.9202C29.86 88.6896 30.7833 89.3051 31.5527 89.3051C50.4797 87.9202 69.4068 87.7663 88.3339 89.3051C89.411 89.459 90.1804 88.3818 90.1804 87.4586C90.3343 84.8426 90.4882 82.0728 90.4882 79.4569C91.2576 79.6107 92.0269 79.7646 92.7963 79.9185C93.7196 80.0724 94.7968 80.3801 95.72 80.534C96.3356 86.3814 96.3355 92.3827 95.1045 97.9223ZM115.263 76.2254C115.263 79.6107 110.339 79.1491 107.723 78.3797C105.722 78.6875 101.875 77.6103 98.9515 76.9948C98.6437 70.6858 98.0282 64.5307 97.7205 58.2216C101.567 61.1453 105.414 64.069 109.261 66.9927C114.032 68.5315 116.801 73.1479 115.263 76.2254Z" fill="#7BA2C8"/>
</svg>
